<?xml version="1.0" encoding="utf-8" ?>
<svg baseProfile="full" height="160px" version="1.1" width="160px" xmlns="http://www.w3.org/2000/svg" xmlns:ev="http://www.w3.org/2001/xml-events" xmlns:xlink="http://www.w3.org/1999/xlink"><defs /><rect fill="rgb(143,86,59)" height="10px" width="10px" x="40px" y="0px" /><rect fill="rgb(102,57,49)" height="10px" width="10px" x="50px" y="0px" /><rect fill="rgb(143,86,59)" height="10px" width="10px" x="60px" y="0px" /><rect fill="rgb(102,57,49)" height="10px" width="10px" x="70px" y="0px" /><rect fill="rgb(143,86,59)" height="10px" width="10px" x="80px" y="0px" /><rect fill="rgb(102,57,49)" height="10px" width="10px" x="90px" y="0px" /><rect fill="rgb(143,86,59)" height="10px" width="10px" x="100px" y="0px" /><rect fill="rgb(102,57,49)" height="10px" width="10px" x="40px" y="10px" /><rect fill="rgb(217,160,102)" height="10px" width="10px" x="50px" y="10px" /><rect fill="rgb(102,57,49)" height="10px" width="10px" x="60px" y="10px" /><rect fill="rgb(217,160,102)" height="10px" width="10px" x="70px" y="10px" /><rect fill="rgb(102,57,49)" height="10px" width="10px" x="80px" y="10px" /><rect fill="rgb(217,160,102)" height="10px" width="10px" x="90px" y="10px" /><rect fill="rgb(102,57,49)" height="10px" width="10px" x="100px" y="10px" /><rect fill="rgb(143,86,59)" height="10px" width="10px" x="110px" y="10px" /><rect fill="rgb(143,86,59)" height="10px" width="10px" x="40px" y="20px" /><rect fill="rgb(102,57,49)" height="10px" width="10px" x="50px" y="20px" /><rect fill="rgb(217,160,102)" height="10px" width="10px" x="60px" y="20px" /><rect fill="rgb(102,57,49)" height="10px" width="10px" x="70px" y="20px" /><rect fill="rgb(217,160,102)" height="10px" width="10px" x="80px" y="20px" /><rect fill="rgb(102,57,49)" height="10px" width="10px" x="90px" y="20px" /><rect fill="rgb(217,160,102)" height="10px" width="10px" x="100px" y="20px" /><rect fill="rgb(102,57,49)" height="10px" width="10px" x="110px" y="20px" /><rect fill="rgb(102,57,49)" height="10px" width="10px" x="40px" y="30px" /><rect fill="rgb(217,160,102)" height="10px" width="10px" x="50px" y="30px" /><rect fill="rgb(102,57,49)" height="10px" width="10px" x="60px" y="30px" /><rect fill="rgb(217,160,102)" height="10px" width="10px" x="70px" y="30px" /><rect fill="rgb(102,57,49)" height="10px" width="10px" x="80px" y="30px" /><rect fill="rgb(217,160,102)" height="10px" width="10px" x="90px" y="30px" /><rect fill="rgb(102,57,49)" height="10px" width="10px" x="100px" y="30px" /><rect fill="rgb(143,86,59)" height="10px" width="10px" x="110px" y="30px" /><rect fill="rgb(143,86,59)" height="10px" width="10px" x="40px" y="40px" /><rect fill="rgb(102,57,49)" height="10px" width="10px" x="50px" y="40px" /><rect fill="rgb(102,57,49)" height="10px" width="10px" x="60px" y="40px" /><rect fill="rgb(102,57,49)" height="10px" width="10px" x="70px" y="40px" /><rect fill="rgb(102,57,49)" height="10px" width="10px" x="80px" y="40px" /><rect fill="rgb(102,57,49)" height="10px" width="10px" x="90px" y="40px" /><rect fill="rgb(143,86,59)" height="10px" width="10px" x="100px" y="40px" /><rect fill="rgb(143,86,59)" height="10px" width="10px" x="40px" y="50px" /><rect fill="rgb(102,57,49)" height="10px" width="10px" x="50px" y="50px" /><rect fill="rgb(255,255,255)" height="10px" width="10px" x="60px" y="50px" /><rect fill="rgb(255,255,255)" height="10px" width="10px" x="70px" y="50px" /><rect fill="rgb(255,255,255)" height="10px" width="10px" x="80px" y="50px" /><rect fill="rgb(102,57,49)" height="10px" width="10px" x="90px" y="50px" /><rect fill="rgb(143,86,59)" height="10px" width="10px" x="100px" y="50px" /><rect fill="rgb(143,86,59)" height="10px" width="10px" x="30px" y="60px" /><rect fill="rgb(102,57,49)" height="10px" width="10px" x="40px" y="60px" /><rect fill="rgb(255,255,255)" height="10px" width="10px" x="50px" y="60px" /><rect fill="rgb(0,0,0)" height="10px" width="10px" x="60px" y="60px" /><rect fill="rgb(0,0,0)" height="10px" width="10px" x="70px" y="60px" /><rect fill="rgb(0,0,0)" height="10px" width="10px" x="80px" y="60px" /><rect fill="rgb(255,255,255)" height="10px" width="10px" x="90px" y="60px" /><rect fill="rgb(102,57,49)" height="10px" width="10px" x="100px" y="60px" /><rect fill="rgb(102,57,49)" height="10px" width="10px" x="110px" y="60px" /><rect fill="rgb(102,57,49)" height="10px" width="10px" x="120px" y="60px" /><rect fill="rgb(143,86,59)" height="10px" width="10px" x="130px" y="60px" /><rect fill="rgb(102,57,49)" height="10px" width="10px" x="30px" y="70px" /><rect fill="rgb(255,255,255)" height="10px" width="10px" x="40px" y="70px" /><rect fill="rgb(0,0,0)" height="10px" width="10px" x="50px" y="70px" /><rect fill="rgb(0,0,0)" height="10px" width="10px" x="60px" y="70px" /><rect fill="rgb(0,0,0)" height="10px" width="10px" x="70px" y="70px" /><rect fill="rgb(0,0,0)" height="10px" width="10px" x="80px" y="70px" /><rect fill="rgb(0,0,0)" height="10px" width="10px" x="90px" y="70px" /><rect fill="rgb(255,255,255)" height="10px" width="10px" x="100px" y="70px" /><rect fill="rgb(255,255,255)" height="10px" width="10px" x="110px" y="70px" /><rect fill="rgb(255,255,255)" height="10px" width="10px" x="120px" y="70px" /><rect fill="rgb(102,57,49)" height="10px" width="10px" x="130px" y="70px" /><rect fill="rgb(143,86,59)" height="10px" width="10px" x="20px" y="80px" /><rect fill="rgb(102,57,49)" height="10px" width="10px" x="30px" y="80px" /><rect fill="rgb(255,255,255)" height="10px" width="10px" x="40px" y="80px" /><rect fill="rgb(255,255,255)" height="10px" width="10px" x="50px" y="80px" /><rect fill="rgb(0,0,0)" height="10px" width="10px" x="60px" y="80px" /><rect fill="rgb(0,0,0)" height="10px" width="10px" x="70px" y="80px" /><rect fill="rgb(0,0,0)" height="10px" width="10px" x="80px" y="80px" /><rect fill="rgb(255,255,255)" height="10px" width="10px" x="90px" y="80px" /><rect fill="rgb(255,255,255)" height="10px" width="10px" x="100px" y="80px" /><rect fill="rgb(102,57,49)" height="10px" width="10px" x="110px" y="80px" /><rect fill="rgb(255,255,255)" height="10px" width="10px" x="120px" y="80px" /><rect fill="rgb(102,57,49)" height="10px" width="10px" x="130px" y="80px" /><rect fill="rgb(143,86,59)" height="10px" width="10px" x="10px" y="90px" /><rect fill="rgb(102,57,49)" height="10px" width="10px" x="20px" y="90px" /><rect fill="rgb(255,255,255)" height="10px" width="10px" x="30px" y="90px" /><rect fill="rgb(255,255,255)" height="10px" width="10px" x="40px" y="90px" /><rect fill="rgb(255,255,255)" height="10px" width="10px" x="50px" y="90px" /><rect fill="rgb(255,255,255)" height="10px" width="10px" x="60px" y="90px" /><rect fill="rgb(255,255,255)" height="10px" width="10px" x="70px" y="90px" /><rect fill="rgb(255,255,255)" height="10px" width="10px" x="80px" y="90px" /><rect fill="rgb(255,255,255)" height="10px" width="10px" x="90px" y="90px" /><rect fill="rgb(255,255,255)" height="10px" width="10px" x="100px" y="90px" /><rect fill="rgb(255,255,255)" height="10px" width="10px" x="110px" y="90px" /><rect fill="rgb(255,255,255)" height="10px" width="10px" x="120px" y="90px" /><rect fill="rgb(102,57,49)" height="10px" width="10px" x="130px" y="90px" /><rect fill="rgb(102,57,49)" height="10px" width="10px" x="10px" y="100px" /><rect fill="rgb(255,255,255)" height="10px" width="10px" x="20px" y="100px" /><rect fill="rgb(238,195,154)" height="10px" width="10px" x="30px" y="100px" /><rect fill="rgb(255,255,255)" height="10px" width="10px" x="40px" y="100px" /><rect fill="rgb(255,255,255)" height="10px" width="10px" x="50px" y="100px" /><rect fill="rgb(255,255,255)" height="10px" width="10px" x="60px" y="100px" /><rect fill="rgb(255,255,255)" height="10px" width="10px" x="70px" y="100px" /><rect fill="rgb(255,255,255)" height="10px" width="10px" x="80px" y="100px" /><rect fill="rgb(255,255,255)" height="10px" width="10px" x="90px" y="100px" /><rect fill="rgb(255,255,255)" height="10px" width="10px" x="100px" y="100px" /><rect fill="rgb(238,195,154)" height="10px" width="10px" x="110px" y="100px" /><rect fill="rgb(255,255,255)" height="10px" width="10px" x="120px" y="100px" /><rect fill="rgb(102,57,49)" height="10px" width="10px" x="130px" y="100px" /><rect fill="rgb(102,57,49)" height="10px" width="10px" x="10px" y="110px" /><rect fill="rgb(255,255,255)" height="10px" width="10px" x="20px" y="110px" /><rect fill="rgb(238,195,154)" height="10px" width="10px" x="30px" y="110px" /><rect fill="rgb(238,195,154)" height="10px" width="10px" x="40px" y="110px" /><rect fill="rgb(255,255,255)" height="10px" width="10px" x="50px" y="110px" /><rect fill="rgb(255,255,255)" height="10px" width="10px" x="60px" y="110px" /><rect fill="rgb(255,255,255)" height="10px" width="10px" x="70px" y="110px" /><rect fill="rgb(255,255,255)" height="10px" width="10px" x="80px" y="110px" /><rect fill="rgb(255,255,255)" height="10px" width="10px" x="90px" y="110px" /><rect fill="rgb(238,195,154)" height="10px" width="10px" x="100px" y="110px" /><rect fill="rgb(238,195,154)" height="10px" width="10px" x="110px" y="110px" /><rect fill="rgb(255,255,255)" height="10px" width="10px" x="120px" y="110px" /><rect fill="rgb(102,57,49)" height="10px" width="10px" x="130px" y="110px" /><rect fill="rgb(143,86,59)" height="10px" width="10px" x="10px" y="120px" /><rect fill="rgb(102,57,49)" height="10px" width="10px" x="20px" y="120px" /><rect fill="rgb(255,255,255)" height="10px" width="10px" x="30px" y="120px" /><rect fill="rgb(238,195,154)" height="10px" width="10px" x="40px" y="120px" /><rect fill="rgb(238,195,154)" height="10px" width="10px" x="50px" y="120px" /><rect fill="rgb(255,255,255)" height="10px" width="10px" x="60px" y="120px" /><rect fill="rgb(255,255,255)" height="10px" width="10px" x="70px" y="120px" /><rect fill="rgb(255,255,255)" height="10px" width="10px" x="80px" y="120px" /><rect fill="rgb(238,195,154)" height="10px" width="10px" x="90px" y="120px" /><rect fill="rgb(238,195,154)" height="10px" width="10px" x="100px" y="120px" /><rect fill="rgb(255,255,255)" height="10px" width="10px" x="110px" y="120px" /><rect fill="rgb(102,57,49)" height="10px" width="10px" x="120px" y="120px" /><rect fill="rgb(143,86,59)" height="10px" width="10px" x="130px" y="120px" /><rect fill="rgb(143,86,59)" height="10px" width="10px" x="20px" y="130px" /><rect fill="rgb(102,57,49)" height="10px" width="10px" x="30px" y="130px" /><rect fill="rgb(255,255,255)" height="10px" width="10px" x="40px" y="130px" /><rect fill="rgb(255,255,255)" height="10px" width="10px" x="50px" y="130px" /><rect fill="rgb(238,195,154)" height="10px" width="10px" x="60px" y="130px" /><rect fill="rgb(238,195,154)" height="10px" width="10px" x="70px" y="130px" /><rect fill="rgb(238,195,154)" height="10px" width="10px" x="80px" y="130px" /><rect fill="rgb(255,255,255)" height="10px" width="10px" x="90px" y="130px" /><rect fill="rgb(255,255,255)" height="10px" width="10px" x="100px" y="130px" /><rect fill="rgb(102,57,49)" height="10px" width="10px" x="110px" y="130px" /><rect fill="rgb(143,86,59)" height="10px" width="10px" x="120px" y="130px" /><rect fill="rgb(143,86,59)" height="10px" width="10px" x="30px" y="140px" /><rect fill="rgb(102,57,49)" height="10px" width="10px" x="40px" y="140px" /><rect fill="rgb(102,57,49)" height="10px" width="10px" x="50px" y="140px" /><rect fill="rgb(255,255,255)" height="10px" width="10px" x="60px" y="140px" /><rect fill="rgb(255,255,255)" height="10px" width="10px" x="70px" y="140px" /><rect fill="rgb(255,255,255)" height="10px" width="10px" x="80px" y="140px" /><rect fill="rgb(102,57,49)" height="10px" width="10px" x="90px" y="140px" /><rect fill="rgb(102,57,49)" height="10px" width="10px" x="100px" y="140px" /><rect fill="rgb(143,86,59)" height="10px" width="10px" x="110px" y="140px" /><rect fill="rgb(143,86,59)" height="10px" width="10px" x="50px" y="150px" /><rect fill="rgb(102,57,49)" height="10px" width="10px" x="60px" y="150px" /><rect fill="rgb(102,57,49)" height="10px" width="10px" x="70px" y="150px" /><rect fill="rgb(102,57,49)" height="10px" width="10px" x="80px" y="150px" /><rect fill="rgb(143,86,59)" height="10px" width="10px" x="90px" y="150px" /></svg>