<?xml version="1.0" standalone="no"?><!DOCTYPE svg PUBLIC "-//W3C//DTD SVG 1.1//EN" "http://www.w3.org/Graphics/SVG/1.1/DTD/svg11.dtd"><svg width="100%" height="100%" viewBox="0 0 16 16" version="1.1" xmlns="http://www.w3.org/2000/svg" xmlns:xlink="http://www.w3.org/1999/xlink" xml:space="preserve" style="fill-rule:evenodd;clip-rule:evenodd;stroke-linejoin:round;stroke-miterlimit:1.41421;"><g id="Milo Dinosaur"><path d="M1,9l1,0l0,1l1,0l0,1l1,0l0,-5l1,0l0,-5l1,0l0,-1l8,0l0,1l1,0l0,3l-1,0l0,2l-1,0l0,1l1,0l0,1l1,0l0,2l-1,0l0,1l-1,0l0,4l-1,0l0,1l-7,0l0,-1l-3,0l0,-1l-1,0l0,-5Z" style="fill:#663931;"/><rect x="6" y="8" width="5" height="6" style="fill:#8f563b;"/><path d="M9,1l5,0l0,3l-4,0l0,1l3,0l0,1l-2,0l0,1l-1,0l0,-1l-1,0l0,1l-1,0l0,-1l-1,0l0,1l-1,0l0,-1l1,0l0,-1l1,0l0,1l1,0l0,-1l-1,0l0,-1l-1,0l0,1l-1,0l0,-1l1,0l0,-1l-1,0l0,-1l1,0l0,-1l1,0l0,1l-1,0l0,1l1,0l0,1l1,0l0,-3Z" style="fill:#8f563b;"/><path d="M12,8l2,0l0,2l-1,0l0,-1l-1,0l0,-1Z" style="fill:#8f563b;"/><path d="M2,11l1,0l0,1l1,0l0,2l-2,0l0,-3Z" style="fill:#8f563b;"/><path d="M12,14l-1,0l0,1l-5,0l0,-1l-1,0l0,-7l7,0l0,7ZM11,14l0,-6l-4,0l0,1l-1,0l0,1l1,0l0,-1l1,0l0,1l-1,0l0,1l-1,0l0,1l1,0l0,-1l1,0l0,1l-1,0l0,1l-1,0l0,1l1,0l0,-1l1,0l0,1l3,0Z" style="fill:#d9a066;"/><rect x="8" y="2" width="1" height="1" style="fill:#fff;"/><rect x="10" y="7" width="1" height="1" style="fill:#eec39a;"/><rect x="8" y="7" width="1" height="1" style="fill:#eec39a;"/><rect x="6" y="7" width="1" height="1" style="fill:#eec39a;"/><rect x="5" y="8" width="1" height="1" style="fill:#eec39a;"/><rect x="5" y="10" width="1" height="1" style="fill:#eec39a;"/><rect x="5" y="12" width="1" height="1" style="fill:#eec39a;"/></g></svg>