<?xml version="1.0" standalone="no"?>
<!DOCTYPE svg PUBLIC "-//W3C//DTD SVG 1.1//EN" "http://www.w3.org/Graphics/SVG/1.1/DTD/svg11.dtd">
<!--Generator: Xara Designer (www.xara.com), SVG filter version: 5.0.0.2-->
<svg stroke-width="0.501" stroke-linejoin="bevel" fill-rule="evenodd" xmlns:xlink="http://www.w3.org/1999/xlink" xmlns="http://www.w3.org/2000/svg" version="1.1" overflow="visible" width="382.5pt" height="382.5pt" viewBox="0 0 382.5 382.5">
 <defs>
  <marker id="DefaultArrow2" markerUnits="strokeWidth" viewBox="0 0 1 1" markerWidth="1" markerHeight="1" overflow="visible" orient="auto">
   <!-- REF_ARROW_STRAIGHT (-2) -->
   <g transform="scale(0.0092592592)">
    <!-- 1/108 -->
    <path d="M -9 54 L -9 -54 L 117 0 z"/>
   </g>
  </marker>
  <marker id="DefaultArrow3" markerUnits="strokeWidth" viewBox="0 0 1 1" markerWidth="1" markerHeight="1" overflow="visible" orient="auto">
   <!-- REF_ARROW_ANGLED -->
   <g transform="scale(0.0092592592)">
    <path d="M -27 54 L -9 0 L -27 -54 L 135 0 z"/>
   </g>
  </marker>
  <marker id="DefaultArrow4" markerUnits="strokeWidth" viewBox="0 0 1 1" markerWidth="1" markerHeight="1" overflow="visible" orient="auto">
   <!-- REF_ARROW_ROUNDED -->
   <g transform="scale(0.0092592592)">
    <path d="M -9,0 L -9,-45 C -9,-51.708 2.808,-56.580 9,-54 L 117,-9 C 120.916,-7.369 126.000,-4.242 126,0 C 126,4.242 120.916,7.369 117,9 L 9,54 C 2.808,56.580 -9,51.708 -9,45 z"/>
   </g>
  </marker>
  <marker id="DefaultArrow5" markerUnits="strokeWidth" viewBox="0 0 1 1" markerWidth="1" markerHeight="1" overflow="visible" orient="auto">
   <!-- REF_ARROW_SPOT -->
   <g transform="scale(0.0092592592)">
    <path d="M -54, 0 C -54,29.807 -29.807,54 0,54 C 29.807,54 54,29.807 54,0 C 54,-29.807 29.807,-54 0,-54 C -29.807,-54 -54,-29.807 -54,0 z"/>
   </g>
  </marker>
  <marker id="DefaultArrow6" markerUnits="strokeWidth" viewBox="0 0 1 1" markerWidth="1" markerHeight="1" overflow="visible" orient="auto">
   <!-- REF_ARROW_DIAMOND -->
   <g transform="scale(0.0092592592)">
    <path d="M -63,0 L 0,63 L 63,0 L 0,-63 z"/>
   </g>
  </marker>
  <marker id="DefaultArrow7" markerUnits="strokeWidth" viewBox="0 0 1 1" markerWidth="1" markerHeight="1" overflow="visible" orient="auto">
   <!-- REF_ARROW_FEATHER -->
   <g transform="scale(0.0092592592)">
    <path d="M 18,-54 L 108,-54 L 63,0 L 108,54 L 18, 54 L -36,0 z"/>
   </g>
  </marker>
  <marker id="DefaultArrow8" markerUnits="strokeWidth" viewBox="0 0 1 1" markerWidth="1" markerHeight="1" overflow="visible" orient="auto">
   <!-- REF_ARROW_FEATHER2 -->
   <g transform="scale(0.0092592592)">
    <path d="M -36,0 L 18,-54 L 54,-54 L 18,-18 L 27,-18 L 63,-54 L 99,-54 L 63,-18 L 72,-18 L 108,-54 L 144,-54 L 90,0 L 144,54 L 108,54 L 72,18 L 63,18 L 99,54 L 63,54 L 27,18 L 18,18 L 54,54 L 18,54 z"/>
   </g>
  </marker>
  <marker id="DefaultArrow9" markerUnits="strokeWidth" viewBox="0 0 1 1" markerWidth="1" markerHeight="1" overflow="visible" orient="auto">
   <!-- REF_ARROW_HOLLOWDIAMOND -->
   <g transform="scale(0.0092592592)">
    <path d="M 0,45 L -45,0 L 0, -45 L 45, 0 z M 0, 63 L-63, 0 L 0, -63 L 63, 0 z"/>
   </g>
  </marker>
  <filter id="StainedFilter">
   <feBlend mode="multiply" in2="BackgroundImage" in="SourceGraphic" result="blend"/>
   <feComposite in="blend" in2="SourceAlpha" operator="in" result="comp"/>
  </filter>
  <filter id="BleachFilter">
   <feBlend mode="screen" in2="BackgroundImage" in="SourceGraphic" result="blend"/>
   <feComposite in="blend" in2="SourceAlpha" operator="in" result="comp"/>
  </filter>
  <filter id="InvertTransparencyBitmapFilter">
   <feComponentTransfer>
    <feFuncR type="gamma" amplitude="1.055" exponent=".416666666" offset="-0.055"/>
    <feFuncG type="gamma" amplitude="1.055" exponent=".416666666" offset="-0.055"/>
    <feFuncB type="gamma" amplitude="1.055" exponent=".416666666" offset="-0.055"/>
   </feComponentTransfer>
   <feComponentTransfer>
    <feFuncR type="linear" slope="-1" intercept="1"/>
    <feFuncG type="linear" slope="-1" intercept="1"/>
    <feFuncB type="linear" slope="-1" intercept="1"/>
    <feFuncA type="linear" slope="1" intercept="0"/>
   </feComponentTransfer>
   <feComponentTransfer>
    <feFuncR type="gamma" amplitude="1" exponent="2.4" offset="0"/>
    <feFuncG type="gamma" amplitude="1" exponent="2.4" offset="0"/>
    <feFuncB type="gamma" amplitude="1" exponent="2.4" offset="0"/>
   </feComponentTransfer>
  </filter>
 </defs>
 <g id="Document" fill="none" stroke="black" font-family="Times New Roman" font-size="16" transform="scale(1 -1)">
  <g id="Spread" transform="translate(0 -382.5)">
   <g id="Page background">
    <path d="M 0,382.499 L 0,0 L 382.499,0 L 382.499,382.499 L 0,382.499 Z" stroke-linejoin="bevel" stroke="none" stroke-width="0" marker-start="none" marker-end="none" stroke-miterlimit="79.8403193612775"/>
   </g>
   <g id="MouseOff">
    <g id="Group" stroke-linejoin="round" stroke="none">
     <path d="M 26.902,149.734 C 78.404,195.091 193.835,211 284.555,185.251 C 375.277,159.503 407.105,101.779 355.6,56.423 C 304.094,11.067 188.664,-4.843 97.944,20.907 C 7.224,46.654 -24.603,104.378 26.902,149.734 Z" fill="#ffffff" stroke-width="0.248" stroke-linecap="round" marker-start="none" marker-end="none" stroke-miterlimit="79.8403193612775"/>
     <path d="M 103.962,42.119 C 61.074,54.293 37.134,72.767 28.398,88.615 C 21.451,101.209 22.165,116.183 41.472,133.186 C 85.415,171.882 192.339,188.504 278.536,164.039 C 321.427,151.864 345.365,133.386 354.104,117.542 C 361.049,104.944 360.335,89.972 341.026,72.97 C 297.085,34.276 190.16,17.654 103.962,42.119 Z" fill="#e9ddd7" marker-start="none" marker-end="none"/>
     <path d="M 153.924,70.208 C 132.659,76.24 119.485,86.671 116.365,97.919 L 116.362,97.919 C 103.345,131.751 96.477,173.513 96.755,215.875 L 96.76,215.864 L 96.755,215.875 C 96.532,223.988 100.49,232.244 109.077,239.809 C 134.83,262.484 192.55,270.443 237.905,257.564 C 269.547,248.584 286.859,231.822 285.689,214.812 L 285.659,211.859 C 285.654,209.339 290.174,207.799 292.689,209.267 C 295.336,210.809 298.134,212.121 301.06,213.167 C 323.641,221.249 345.279,210.364 349.349,188.89 C 353.422,167.41 338.394,143.419 315.807,135.34 C 304.953,131.455 294.32,131.954 285.745,135.899 C 283.107,137.119 277.37,135.417 276.779,132.891 C 275.75,128.521 274.632,124.202 273.421,119.939 C 271.24,112.261 268.837,105.014 266.229,98.204 L 266.189,98.202 L 266.229,98.202 C 265.012,93.482 261.976,88.806 256.992,84.415 C 236.388,66.271 190.212,59.905 153.924,70.208 Z M 309.44,153.132 C 324.249,158.429 332.904,174.143 330.777,185.367 C 329.135,194.042 320.757,200.14 307.426,195.37 C 292.615,190.073 283.96,174.361 286.087,163.135 C 287.731,154.463 296.107,148.362 309.44,153.132 Z M 96.86,215.875 L 96.755,215.875 L 96.76,215.864 L 96.755,215.875 L 96.86,215.875 Z" fill="#ffffff" stroke-linecap="round" stroke-width="0.248" marker-start="none" marker-end="none" stroke-miterlimit="79.8403193612775"/>
     <path d="M 149.755,193.572 C 129.192,199.409 119.617,207.796 116.718,213.053 C 114.642,216.816 115.233,220.049 121.567,225.621 C 140.83,242.586 191.26,251.159 232.745,239.382 C 253.31,233.545 262.885,225.164 265.782,219.906 C 267.86,216.143 267.264,212.911 260.932,207.338 C 241.664,190.367 191.238,181.799 149.755,193.572 Z" fill="#201816" stroke-width="0.268" marker-start="none" marker-end="none" stroke-miterlimit="79.8403193612775"/>
     <path d="M 152.362,108.711 C 156.884,109.826 161.397,111.215 165.896,112.861 C 168.847,107.243 171.416,102.37 176.969,101.164 C 182.277,100.047 185.489,101.938 185.424,110.86 C 185.228,131.117 185.031,151.374 184.834,171.631 C 190.862,171.037 196.681,170.713 202.325,170.652 C 201.943,150.225 201.561,129.798 201.179,109.371 C 200.707,90.882 191.781,82.05 178.082,85.134 C 165.654,88.041 157.335,98.596 152.362,108.711" fill="#6e4228"/>
     <path d="M 209.184,100.818 C 213.318,103.87 217.448,107.141 221.573,110.61 C 224.437,104.906 228.222,101.043 235.274,103.252 C 241.197,105.158 245.2,110.451 245.538,115.4 C 245.933,121.401 242.204,121.848 235.778,123.469 C 234.605,123.756 233.427,124.066 232.244,124.397 C 222.022,127.25 214.881,133.866 215.401,148.397 C 215.816,161.924 225.584,172.444 239.098,175.377 C 248.678,177.535 255.038,175.952 259.084,167.93 C 255.13,163.564 251.162,159.295 247.179,155.147 C 245.029,159.696 242.433,161.023 238.175,159.987 C 233.798,158.943 230.789,155.159 230.564,150.832 C 230.271,145.529 232.975,143.784 239.071,142.235 C 240.256,141.948 241.435,141.682 242.61,141.437 C 254.554,139 260.878,136.626 259.87,122.375 C 258.747,107.293 248.029,92.382 234.633,87.723 C 221.538,83.287 213.266,90.758 209.184,100.818" fill="#6e4228"/>
     <path d="M 170.863,309.037 C 168.617,308.915 166.926,308.577 165.788,308.023 C 164.65,307.469 163.673,306.538 162.857,305.231 C 162.042,303.924 161.464,302.286 161.127,300.317 C 160.88,298.841 160.758,296.288 160.758,292.657 C 160.758,286.689 160.488,282.521 159.95,280.152 C 159.412,277.784 158.421,275.884 156.974,274.453 C 155.529,273.022 153.406,271.892 150.606,271.062 C 148.729,270.508 145.776,270.231 141.747,270.232 L 139.301,270.232 L 139.301,281.306 C 142.592,281.306 144.746,281.513 145.762,281.929 C 146.776,282.344 147.522,282.944 147.999,283.728 C 148.476,284.513 148.723,285.844 148.737,287.72 C 148.753,289.597 148.883,293.18 149.129,298.47 C 149.283,301.67 149.699,304.231 150.376,306.154 C 151.052,308.075 151.951,309.705 153.075,311.044 C 154.197,312.382 155.635,313.559 157.389,314.575 C 155.113,316.051 153.451,317.498 152.405,318.913 C 150.959,320.943 149.975,323.526 149.452,326.664 C 149.114,328.817 148.868,333.555 148.715,340.876 C 148.683,343.183 148.476,344.722 148.091,345.491 C 147.708,346.26 147.015,346.852 146.015,347.267 C 145.015,347.683 142.777,347.89 139.301,347.89 L 139.301,358.918 L 141.747,358.918 C 145.899,358.918 149.083,358.595 151.299,357.949 C 153.513,357.303 155.374,356.203 156.882,354.649 C 158.389,353.097 159.412,351.19 159.95,348.928 C 160.488,346.667 160.758,343.106 160.758,338.246 C 160.758,332.616 160.988,328.94 161.45,327.218 C 162.126,324.757 163.156,322.996 164.542,321.934 C 165.925,320.874 168.033,320.266 170.863,320.112 L 170.863,309.037 Z" fill-rule="nonzero" stroke-linecap="round" stroke-width="0.315" fill="#956f5a" marker-start="none" marker-end="none" stroke-miterlimit="79.8403193612775"/>
     <path d="M 207.639,324.037 C 205.393,323.915 203.702,323.577 202.564,323.023 C 201.426,322.469 200.449,321.538 199.633,320.231 C 198.818,318.924 198.24,317.286 197.903,315.317 C 197.656,313.841 197.534,311.288 197.534,307.657 C 197.534,301.689 197.264,297.521 196.726,295.152 C 196.188,292.784 195.197,290.884 193.75,289.453 C 192.305,288.022 190.182,286.892 187.382,286.062 C 185.505,285.508 182.552,285.231 178.523,285.232 L 176.077,285.232 L 176.077,296.306 C 179.368,296.306 181.522,296.513 182.538,296.929 C 183.552,297.344 184.298,297.944 184.775,298.728 C 185.252,299.513 185.499,300.844 185.513,302.72 C 185.529,304.597 185.659,308.18 185.905,313.47 C 186.059,316.67 186.475,319.231 187.152,321.154 C 187.828,323.075 188.727,324.705 189.851,326.044 C 190.973,327.382 192.411,328.559 194.165,329.575 C 191.889,331.051 190.227,332.498 189.181,333.913 C 187.735,335.943 186.751,338.526 186.228,341.664 C 185.89,343.817 185.644,348.555 185.491,355.876 C 185.459,358.183 185.252,359.722 184.867,360.491 C 184.484,361.26 183.791,361.852 182.791,362.267 C 181.791,362.683 179.553,362.89 176.077,362.89 L 176.077,373.918 L 178.523,373.918 C 182.675,373.918 185.859,373.595 188.075,372.949 C 190.289,372.303 192.15,371.203 193.658,369.649 C 195.165,368.097 196.188,366.19 196.726,363.928 C 197.264,361.667 197.534,358.106 197.534,353.246 C 197.534,347.616 197.764,343.94 198.226,342.218 C 198.902,339.757 199.932,337.996 201.318,336.934 C 202.701,335.874 204.809,335.266 207.639,335.112 L 207.639,324.037 Z" fill-rule="nonzero" stroke-linecap="round" stroke-width="0.315" fill="#956f5a" marker-start="none" marker-end="none" stroke-miterlimit="79.8403193612775"/>
     <path d="M 244.415,309.037 C 242.169,308.915 240.478,308.577 239.34,308.023 C 238.202,307.469 237.225,306.538 236.409,305.231 C 235.594,303.924 235.016,302.286 234.679,300.317 C 234.432,298.841 234.31,296.288 234.31,292.657 C 234.31,286.689 234.04,282.521 233.502,280.152 C 232.964,277.784 231.973,275.884 230.526,274.453 C 229.081,273.022 226.958,271.892 224.158,271.062 C 222.281,270.508 219.328,270.231 215.299,270.232 L 212.853,270.232 L 212.853,281.306 C 216.144,281.306 218.298,281.513 219.314,281.929 C 220.328,282.344 221.074,282.944 221.551,283.728 C 222.028,284.513 222.275,285.844 222.289,287.72 C 222.305,289.597 222.435,293.18 222.681,298.47 C 222.835,301.67 223.251,304.231 223.928,306.154 C 224.604,308.075 225.503,309.705 226.627,311.044 C 227.749,312.382 229.187,313.559 230.941,314.575 C 228.665,316.051 227.003,317.498 225.957,318.913 C 224.511,320.943 223.527,323.526 223.004,326.664 C 222.666,328.817 222.42,333.555 222.267,340.876 C 222.235,343.183 222.028,344.722 221.643,345.491 C 221.26,346.26 220.567,346.852 219.567,347.267 C 218.567,347.683 216.329,347.89 212.853,347.89 L 212.853,358.918 L 215.299,358.918 C 219.451,358.918 222.635,358.595 224.851,357.949 C 227.065,357.303 228.926,356.203 230.434,354.649 C 231.941,353.097 232.964,351.19 233.502,348.928 C 234.04,346.667 234.31,343.106 234.31,338.246 C 234.31,332.616 234.54,328.94 235.002,327.218 C 235.678,324.757 236.708,322.996 238.094,321.934 C 239.477,320.874 241.585,320.266 244.415,320.112 L 244.415,309.037 Z" fill-rule="nonzero" stroke-linecap="round" stroke-width="0.315" fill="#956f5a" marker-start="none" marker-end="none" stroke-miterlimit="79.8403193612775"/>
    </g>
   </g>
  </g>
 </g>
</svg>
